<svg width="50" height="46" viewBox="0 0 50 46" fill="none" xmlns="http://www.w3.org/2000/svg">
<path d="M36.9374 1.41826C39.2402 2.76591 40.0722 6.26396 39.2694 11.2679C38.4843 16.1604 36.2402 21.9554 32.9472 27.5862C29.6542 33.2112 25.6933 38.0042 21.8085 41.0804C17.8359 44.2268 14.3788 45.2112 12.0761 43.8636C9.77338 42.5159 8.94132 39.0179 9.74405 34.014C10.5292 29.1214 12.7734 23.3265 16.0663 17.6956C19.3593 12.0706 23.3203 7.27763 27.205 4.20146C30.3339 1.72294 33.1464 0.58623 35.3261 0.873339C35.912 0.955371 36.4511 1.13115 36.9374 1.41826ZM21.3925 40.553C25.2128 37.5237 29.1152 32.8011 32.3671 27.2405C35.6191 21.6858 37.8398 15.9729 38.6073 11.1565C39.3632 6.4456 38.6484 3.19365 36.5976 1.99248C34.5468 0.79131 31.3593 1.76396 27.621 4.72294C23.8007 7.75224 19.8984 12.4749 16.6464 18.0296C13.3945 23.5843 11.1737 29.2972 10.4062 34.1136C9.65031 38.8245 10.3651 42.0765 12.4159 43.2776C12.8319 43.5179 13.289 43.6761 13.7929 43.7405C15.7734 44.01 18.4042 42.9143 21.3925 40.553Z" fill="#1D428A"/>
<path d="M41.0624 14.0804C45.9316 15.4749 48.7499 17.7015 48.996 20.3616C49.2421 23.0218 46.8866 25.7347 42.3573 27.9964C37.9218 30.2171 31.9042 31.7698 25.412 32.3733C18.9199 32.9769 12.7206 32.5608 7.95108 31.1956C3.08194 29.8011 0.263599 27.5745 0.0175048 24.9144C-0.228589 22.2542 2.12689 19.5413 6.65619 17.2796C11.0917 15.0589 17.1093 13.5062 23.6015 12.9026C27.9902 12.4925 32.2499 12.5511 36.0234 13.055C37.8281 13.2952 39.5214 13.6409 41.0624 14.0804ZM25.3476 31.7112C31.7577 31.1136 37.6933 29.5843 42.0526 27.4046C46.3183 25.2718 48.5448 22.7933 48.328 20.4261C48.1054 18.0589 45.4628 16.0374 40.8749 14.7249C36.1874 13.3831 30.0761 12.973 23.6601 13.5706C17.2499 14.1683 11.3144 15.6976 6.95502 17.8772C2.68939 20.0101 0.46282 22.4886 0.679617 24.8558C0.902273 27.2229 3.54483 29.2444 8.13272 30.5569C9.64444 30.9905 11.3085 31.3245 13.078 31.5589C16.7987 32.0569 21.0058 32.1155 25.3476 31.7112Z" fill="#1D428A"/>
<path d="M23.4491 4.0374C27.0468 7.44756 30.5624 12.5686 33.3515 18.4632C36.1347 24.3577 37.8632 30.3284 38.2089 35.2737C38.5663 40.3245 37.4296 43.7347 35.0155 44.8772C32.6014 46.0198 29.244 44.7308 25.5702 41.2444C21.9725 37.8343 18.4569 32.7132 15.6679 26.8186L15.9725 26.678L15.6679 26.8186C12.8847 20.9241 11.1561 14.9534 10.8104 10.0081C10.453 4.95732 11.5897 1.54717 14.0038 0.404592C14.7772 0.041311 15.6503 -0.0758769 16.5995 0.04717C18.6034 0.316701 20.953 1.67022 23.4491 4.0374ZM34.7284 44.2737C36.8729 43.2601 37.8749 40.0784 37.5409 35.3206C37.201 30.4573 35.496 24.5687 32.7479 18.7503C29.9999 12.9261 26.5311 7.87529 22.9921 4.52373C19.5292 1.24248 16.4413 0.000300351 14.2909 1.01397C12.1464 2.02764 11.1444 5.20927 11.4784 9.96708C11.8182 14.8304 13.5233 20.719 16.2714 26.5374C19.0194 32.3616 22.4882 37.4124 26.0272 40.764C28.4237 43.0315 30.6385 44.3323 32.4901 44.5784C33.3163 44.6839 34.0663 44.5843 34.7284 44.2737Z" fill="#1D428A"/>
<path d="M27.4393 23.4964C28.2655 22.0843 27.7909 20.2679 26.3788 19.4417C24.9667 18.6155 23.1503 19.0901 22.3241 20.5023C21.4979 21.9144 21.9725 23.7308 23.3847 24.5569C24.7968 25.3831 26.6132 24.9085 27.4393 23.4964Z" fill="#FEC031"/>
</svg>
