<svg width="24" height="24" viewBox="0 0 24 24" fill="none" xmlns="http://www.w3.org/2000/svg">
<path d="M7.5 3H16.504C18.987 3 21 5.013 21 7.496V16.505C21 18.987 18.987 21 16.504 21H7.496C5.013 21 3 18.987 3 16.504V7.5C3 5.015 5.015 3 7.5 3V3Z" stroke="white" stroke-width="1.5" stroke-linecap="round" stroke-linejoin="round"/>
<path d="M10.0941 15.491L9.28206 12.817C9.28106 12.816 6.95606 12.091 6.95606 12.091C6.69006 12.008 6.67706 11.635 6.93806 11.535L15.7891 8.12103C16.1161 7.99503 16.4531 8.28203 16.3811 8.62503L14.8941 15.633C14.8071 16.044 14.3241 16.227 13.9871 15.977L11.8751 14.417L10.6301 15.629C10.4551 15.797 10.1651 15.722 10.0941 15.491V15.491Z" stroke="white" stroke-width="1.5" stroke-linecap="round" stroke-linejoin="round"/>
</svg>
