<svg width="24" height="24" viewBox="0 0 24 24" fill="none" xmlns="http://www.w3.org/2000/svg">
<path d="M18.2039 5.76199C16.5579 4.11499 14.3689 3.20699 12.0369 3.20599C7.2299 3.20599 3.3189 7.11499 3.3179 11.92C3.3159 13.449 3.7169 14.952 4.4809 16.277L3.2439 20.793L7.8659 19.581C9.1449 20.277 10.5769 20.642 12.0329 20.642H12.0369C16.8419 20.642 20.7529 16.732 20.7549 11.927C20.7559 9.59899 19.8499 7.40999 18.2039 5.76199Z" stroke="white" stroke-width="1.5" stroke-linecap="round" stroke-linejoin="round"/>
<path d="M13.095 13.5599L13.501 13.1569C13.874 12.7869 14.464 12.7399 14.894 13.0419C15.31 13.3339 15.686 13.5959 16.036 13.8399C16.592 14.2259 16.659 15.0179 16.18 15.4959L15.821 15.8549" stroke="white" stroke-width="1.5" stroke-linecap="round" stroke-linejoin="round"/>
<path d="M8.14502 8.1789L8.50402 7.8199C8.98202 7.3419 9.77402 7.4089 10.16 7.9639C10.403 8.3139 10.665 8.6899 10.958 9.1059C11.26 9.5359 11.214 10.1259 10.843 10.4989L10.44 10.9049" stroke="white" stroke-width="1.5" stroke-linecap="round" stroke-linejoin="round"/>
<path d="M15.821 15.8549C14.34 17.3289 11.851 16.0769 9.88599 14.1109" stroke="white" stroke-width="1.5" stroke-linecap="round" stroke-linejoin="round"/>
<path d="M9.88807 14.1139C7.92307 12.1479 6.67107 9.65989 8.14507 8.17889" stroke="white" stroke-width="1.5" stroke-linecap="round" stroke-linejoin="round"/>
<path d="M10.4399 10.905C10.7589 11.408 11.1679 11.906 11.6299 12.368L11.6319 12.37C12.0939 12.832 12.5919 13.241 13.0949 13.56" stroke="white" stroke-width="1.5" stroke-linecap="round" stroke-linejoin="round"/>
</svg>
