<svg width="24" height="24" viewBox="0 0 24 24" fill="none" xmlns="http://www.w3.org/2000/svg">
<path d="M7.5 3H16.504C18.987 3 21 5.013 21 7.496V16.505C21 18.987 18.987 21 16.504 21H7.496C5.013 21 3 18.987 3 16.504V7.5C3 5.015 5.015 3 7.5 3V3Z" stroke="white" stroke-width="1.5" stroke-linecap="round" stroke-linejoin="round"/>
<path d="M6.25 15.35C6.269 15.347 8.05 14.75 8.05 14.75C6.046 12.724 5.894 9.72299 7.45 7.54999C8.188 8.92299 9.566 10.189 11.05 10.55C11.107 8.81699 12.283 7.54999 14.05 7.54999C15.253 7.54999 15.961 8.00899 16.45 8.74999H18.25L17.05 10.55" stroke="white" stroke-width="1.5" stroke-linecap="round" stroke-linejoin="round"/>
</svg>
