<svg width="118" height="43" viewBox="0 0 118 43" fill="none" xmlns="http://www.w3.org/2000/svg">
<g clip-path="url(#clip0_473_4)">
<path d="M25.6351 28L25.6001 10.15L16.7451 25.025H15.1351L6.28012 10.255V28H2.92012V3.5H5.79012L16.0101 20.72L26.0901 3.5H28.9601L28.9951 28H25.6351ZM47.4079 28.28C44.9345 28.28 42.7062 27.7433 40.7229 26.67C38.7395 25.5733 37.1762 24.0683 36.0329 22.155C34.9129 20.2417 34.3529 18.1067 34.3529 15.75C34.3529 13.3933 34.9129 11.2583 36.0329 9.345C37.1762 7.43167 38.7395 5.93833 40.7229 4.865C42.7062 3.76833 44.9345 3.22 47.4079 3.22C49.8579 3.22 52.0745 3.76833 54.0579 4.865C56.0412 5.93833 57.5929 7.43167 58.7129 9.345C59.8329 11.235 60.3929 13.37 60.3929 15.75C60.3929 18.13 59.8329 20.2767 58.7129 22.19C57.5929 24.08 56.0412 25.5733 54.0579 26.67C52.0745 27.7433 49.8579 28.28 47.4079 28.28ZM47.4079 25.165C49.2045 25.165 50.8145 24.7567 52.2379 23.94C53.6845 23.1233 54.8162 22.0033 55.6329 20.58C56.4729 19.1333 56.8929 17.5233 56.8929 15.75C56.8929 13.9767 56.4729 12.3783 55.6329 10.955C54.8162 9.50833 53.6845 8.37667 52.2379 7.56C50.8145 6.74333 49.2045 6.335 47.4079 6.335C45.6112 6.335 43.9779 6.74333 42.5079 7.56C41.0612 8.37667 39.9179 9.50833 39.0779 10.955C38.2612 12.3783 37.8529 13.9767 37.8529 15.75C37.8529 17.5233 38.2612 19.1333 39.0779 20.58C39.9179 22.0033 41.0612 23.1233 42.5079 23.94C43.9779 24.7567 45.6112 25.165 47.4079 25.165ZM76.8024 28.28C74.3291 28.28 72.1007 27.7433 70.1174 26.67C68.134 25.5733 66.5707 24.0683 65.4274 22.155C64.3074 20.2417 63.7474 18.1067 63.7474 15.75C63.7474 13.3933 64.3074 11.2583 65.4274 9.345C66.5707 7.43167 68.134 5.93833 70.1174 4.865C72.1007 3.76833 74.3291 3.22 76.8024 3.22C79.2524 3.22 81.4691 3.76833 83.4524 4.865C85.4357 5.93833 86.9874 7.43167 88.1074 9.345C89.2274 11.235 89.7874 13.37 89.7874 15.75C89.7874 18.13 89.2274 20.2767 88.1074 22.19C86.9874 24.08 85.4357 25.5733 83.4524 26.67C81.4691 27.7433 79.2524 28.28 76.8024 28.28ZM76.8024 25.165C78.5991 25.165 80.2091 24.7567 81.6324 23.94C83.0791 23.1233 84.2107 22.0033 85.0274 20.58C85.8674 19.1333 86.2874 17.5233 86.2874 15.75C86.2874 13.9767 85.8674 12.3783 85.0274 10.955C84.2107 9.50833 83.0791 8.37667 81.6324 7.56C80.2091 6.74333 78.5991 6.335 76.8024 6.335C75.0057 6.335 73.3724 6.74333 71.9024 7.56C70.4557 8.37667 69.3124 9.50833 68.4724 10.955C67.6557 12.3783 67.2474 13.9767 67.2474 15.75C67.2474 17.5233 67.6557 19.1333 68.4724 20.58C69.3124 22.0033 70.4557 23.1233 71.9024 23.94C73.3724 24.7567 75.0057 25.165 76.8024 25.165ZM106.092 28.28C103.642 28.28 101.425 27.7433 99.4419 26.67C97.4819 25.5733 95.9419 24.08 94.8219 22.19C93.7019 20.2767 93.1419 18.13 93.1419 15.75C93.1419 13.37 93.7019 11.235 94.8219 9.345C95.9419 7.43167 97.4936 5.93833 99.4769 4.865C101.46 3.76833 103.677 3.22 106.127 3.22C108.04 3.22 109.79 3.54667 111.377 4.2C112.964 4.83 114.317 5.775 115.437 7.035L113.162 9.24C111.319 7.30333 109.02 6.335 106.267 6.335C104.447 6.335 102.802 6.74333 101.332 7.56C99.8619 8.37667 98.7069 9.50833 97.8669 10.955C97.0502 12.3783 96.6419 13.9767 96.6419 15.75C96.6419 17.5233 97.0502 19.1333 97.8669 20.58C98.7069 22.0033 99.8619 23.1233 101.332 23.94C102.802 24.7567 104.447 25.165 106.267 25.165C108.997 25.165 111.295 24.185 113.162 22.225L115.437 24.43C114.317 25.69 112.952 26.6467 111.342 27.3C109.755 27.9533 108.005 28.28 106.092 28.28Z" fill="white"/>
<path d="M19.2485 31.5V35H18.7585V31.935H16.7285V35H16.2335V31.5H19.2485ZM21.6649 32.325C21.9216 32.325 22.1516 32.3817 22.3549 32.495C22.5583 32.6083 22.7166 32.7667 22.8299 32.97C22.9466 33.1733 23.0049 33.4083 23.0049 33.675C23.0049 33.9417 22.9466 34.1783 22.8299 34.385C22.7166 34.5883 22.5583 34.7467 22.3549 34.86C22.1516 34.9733 21.9216 35.03 21.6649 35.03C21.4749 35.03 21.2999 34.9933 21.1399 34.92C20.9833 34.8467 20.8499 34.74 20.7399 34.6V35.97H20.2599V32.35H20.7199V32.77C20.8266 32.6233 20.9616 32.5133 21.1249 32.44C21.2883 32.3633 21.4683 32.325 21.6649 32.325ZM21.6249 34.61C21.7949 34.61 21.9466 34.5717 22.0799 34.495C22.2166 34.415 22.3233 34.305 22.3999 34.165C22.4799 34.0217 22.5199 33.8583 22.5199 33.675C22.5199 33.4917 22.4799 33.33 22.3999 33.19C22.3233 33.0467 22.2166 32.9367 22.0799 32.86C21.9466 32.7833 21.7949 32.745 21.6249 32.745C21.4583 32.745 21.3066 32.785 21.1699 32.865C21.0366 32.9417 20.9299 33.05 20.8499 33.19C20.7733 33.33 20.7349 33.4917 20.7349 33.675C20.7349 33.8583 20.7733 34.0217 20.8499 34.165C20.9266 34.305 21.0333 34.415 21.1699 34.495C21.3066 34.5717 21.4583 34.61 21.6249 34.61ZM24.8373 35.03C24.574 35.03 24.3373 34.9717 24.1273 34.855C23.9173 34.7383 23.7523 34.5783 23.6323 34.375C23.5156 34.1683 23.4573 33.935 23.4573 33.675C23.4573 33.415 23.5156 33.1833 23.6323 32.98C23.7523 32.7733 23.9173 32.6133 24.1273 32.5C24.3373 32.3833 24.574 32.325 24.8373 32.325C25.1006 32.325 25.3356 32.3833 25.5423 32.5C25.7523 32.6133 25.9156 32.7733 26.0323 32.98C26.1523 33.1833 26.2123 33.415 26.2123 33.675C26.2123 33.935 26.1523 34.1683 26.0323 34.375C25.9156 34.5783 25.7523 34.7383 25.5423 34.855C25.3356 34.9717 25.1006 35.03 24.8373 35.03ZM24.8373 34.61C25.0073 34.61 25.159 34.5717 25.2923 34.495C25.429 34.415 25.5356 34.305 25.6123 34.165C25.689 34.0217 25.7273 33.8583 25.7273 33.675C25.7273 33.4917 25.689 33.33 25.6123 33.19C25.5356 33.0467 25.429 32.9367 25.2923 32.86C25.159 32.7833 25.0073 32.745 24.8373 32.745C24.6673 32.745 24.514 32.7833 24.3773 32.86C24.244 32.9367 24.1373 33.0467 24.0573 33.19C23.9806 33.33 23.9423 33.4917 23.9423 33.675C23.9423 33.8583 23.9806 34.0217 24.0573 34.165C24.1373 34.305 24.244 34.415 24.3773 34.495C24.514 34.5717 24.6673 34.61 24.8373 34.61ZM28.8554 32.77H27.3854V35H26.9054V32.35H28.8554V32.77ZM30.7518 32.325C31.0085 32.325 31.2385 32.3817 31.4418 32.495C31.6452 32.6083 31.8035 32.7667 31.9168 32.97C32.0335 33.1733 32.0918 33.4083 32.0918 33.675C32.0918 33.9417 32.0335 34.1783 31.9168 34.385C31.8035 34.5883 31.6452 34.7467 31.4418 34.86C31.2385 34.9733 31.0085 35.03 30.7518 35.03C30.5618 35.03 30.3868 34.9933 30.2268 34.92C30.0702 34.8467 29.9368 34.74 29.8268 34.6V35.97H29.3468V32.35H29.8068V32.77C29.9135 32.6233 30.0485 32.5133 30.2118 32.44C30.3752 32.3633 30.5552 32.325 30.7518 32.325ZM30.7118 34.61C30.8818 34.61 31.0335 34.5717 31.1668 34.495C31.3035 34.415 31.4102 34.305 31.4868 34.165C31.5668 34.0217 31.6068 33.8583 31.6068 33.675C31.6068 33.4917 31.5668 33.33 31.4868 33.19C31.4102 33.0467 31.3035 32.9367 31.1668 32.86C31.0335 32.7833 30.8818 32.745 30.7118 32.745C30.5452 32.745 30.3935 32.785 30.2568 32.865C30.1235 32.9417 30.0168 33.05 29.9368 33.19C29.8602 33.33 29.8218 33.4917 29.8218 33.675C29.8218 33.8583 29.8602 34.0217 29.9368 34.165C30.0135 34.305 30.1202 34.415 30.2568 34.495C30.3935 34.5717 30.5452 34.61 30.7118 34.61ZM33.7098 32.325C34.0765 32.325 34.3565 32.415 34.5498 32.595C34.7465 32.775 34.8448 33.0433 34.8448 33.4V35H34.3898V34.65C34.3098 34.7733 34.1948 34.8683 34.0448 34.935C33.8981 34.9983 33.7231 35.03 33.5198 35.03C33.2231 35.03 32.9848 34.9583 32.8048 34.815C32.6281 34.6717 32.5398 34.4833 32.5398 34.25C32.5398 34.0167 32.6248 33.83 32.7948 33.69C32.9648 33.5467 33.2348 33.475 33.6048 33.475H34.3648V33.38C34.3648 33.1733 34.3048 33.015 34.1848 32.905C34.0648 32.795 33.8881 32.74 33.6548 32.74C33.4981 32.74 33.3448 32.7667 33.1948 32.82C33.0448 32.87 32.9181 32.9383 32.8148 33.025L32.6148 32.665C32.7515 32.555 32.9148 32.4717 33.1048 32.415C33.2948 32.355 33.4965 32.325 33.7098 32.325ZM33.5998 34.66C33.7831 34.66 33.9415 34.62 34.0748 34.54C34.2081 34.4567 34.3048 34.34 34.3648 34.19V33.82H33.6248C33.2181 33.82 33.0148 33.9567 33.0148 34.23C33.0148 34.3633 33.0665 34.4683 33.1698 34.545C33.2731 34.6217 33.4165 34.66 33.5998 34.66ZM38.7641 32.35V35H38.3291V33.065L37.3391 34.7H37.1291L36.1491 33.06V35H35.7091V32.35H36.2041L37.2441 34.14L38.3141 32.35H38.7641ZM42.7534 32.35V35H42.3184V33.065L41.3284 34.7H41.1184L40.1384 33.06V35H39.6984V32.35H40.1934L41.2334 34.14L42.3034 32.35H42.7534ZM44.6327 32.325C44.9993 32.325 45.2793 32.415 45.4727 32.595C45.6693 32.775 45.7677 33.0433 45.7677 33.4V35H45.3127V34.65C45.2327 34.7733 45.1177 34.8683 44.9677 34.935C44.821 34.9983 44.646 35.03 44.4427 35.03C44.146 35.03 43.9077 34.9583 43.7277 34.815C43.551 34.6717 43.4627 34.4833 43.4627 34.25C43.4627 34.0167 43.5477 33.83 43.7177 33.69C43.8877 33.5467 44.1577 33.475 44.5277 33.475H45.2877V33.38C45.2877 33.1733 45.2277 33.015 45.1077 32.905C44.9877 32.795 44.811 32.74 44.5777 32.74C44.421 32.74 44.2677 32.7667 44.1177 32.82C43.9677 32.87 43.841 32.9383 43.7377 33.025L43.5377 32.665C43.6743 32.555 43.8377 32.4717 44.0277 32.415C44.2177 32.355 44.4193 32.325 44.6327 32.325ZM44.5227 34.66C44.706 34.66 44.8643 34.62 44.9977 34.54C45.131 34.4567 45.2277 34.34 45.2877 34.19V33.82H44.5477C44.141 33.82 43.9377 33.9567 43.9377 34.23C43.9377 34.3633 43.9893 34.4683 44.0927 34.545C44.196 34.6217 44.3393 34.66 44.5227 34.66ZM48.907 32.35V35H48.427V32.77H47.287L47.257 33.36C47.2403 33.7167 47.2087 34.015 47.162 34.255C47.1153 34.4917 47.0387 34.6817 46.932 34.825C46.8253 34.9683 46.677 35.04 46.487 35.04C46.4003 35.04 46.302 35.025 46.192 34.995L46.222 34.59C46.2653 34.6 46.3053 34.605 46.342 34.605C46.4753 34.605 46.5753 34.5467 46.642 34.43C46.7087 34.3133 46.752 34.175 46.772 34.015C46.792 33.855 46.8103 33.6267 46.827 33.33L46.872 32.35H48.907ZM50.7801 32.325C51.1468 32.325 51.4268 32.415 51.6201 32.595C51.8168 32.775 51.9151 33.0433 51.9151 33.4V35H51.4601V34.65C51.3801 34.7733 51.2651 34.8683 51.1151 34.935C50.9685 34.9983 50.7935 35.03 50.5901 35.03C50.2935 35.03 50.0551 34.9583 49.8751 34.815C49.6985 34.6717 49.6101 34.4833 49.6101 34.25C49.6101 34.0167 49.6951 33.83 49.8651 33.69C50.0351 33.5467 50.3051 33.475 50.6751 33.475H51.4351V33.38C51.4351 33.1733 51.3751 33.015 51.2551 32.905C51.1351 32.795 50.9585 32.74 50.7251 32.74C50.5685 32.74 50.4151 32.7667 50.2651 32.82C50.1151 32.87 49.9885 32.9383 49.8851 33.025L49.6851 32.665C49.8218 32.555 49.9851 32.4717 50.1751 32.415C50.3651 32.355 50.5668 32.325 50.7801 32.325ZM50.6701 34.66C50.8535 34.66 51.0118 34.62 51.1451 34.54C51.2785 34.4567 51.3751 34.34 51.4351 34.19V33.82H50.6951C50.2885 33.82 50.0851 33.9567 50.0851 34.23C50.0851 34.3633 50.1368 34.4683 50.2401 34.545C50.3435 34.6217 50.4868 34.66 50.6701 34.66ZM55.1445 32.35L53.8595 35.265C53.7461 35.535 53.6128 35.725 53.4595 35.835C53.3095 35.945 53.1278 36 52.9145 36C52.7845 36 52.6578 35.9783 52.5345 35.935C52.4145 35.895 52.3145 35.835 52.2345 35.755L52.4395 35.395C52.5761 35.525 52.7345 35.59 52.9145 35.59C53.0311 35.59 53.1278 35.5583 53.2045 35.495C53.2845 35.435 53.3561 35.33 53.4195 35.18L53.5045 34.995L52.3345 32.35H52.8345L53.7595 34.47L54.6745 32.35H55.1445ZM58.9537 32.77H57.9837V35H57.5037V32.77H56.5337V32.35H58.9537V32.77ZM59.4445 32.35H59.9245V35H59.4445V32.35ZM59.6845 31.84C59.5912 31.84 59.5128 31.81 59.4495 31.75C59.3895 31.69 59.3595 31.6167 59.3595 31.53C59.3595 31.4433 59.3895 31.37 59.4495 31.31C59.5128 31.2467 59.5912 31.215 59.6845 31.215C59.7778 31.215 59.8545 31.245 59.9145 31.305C59.9778 31.3617 60.0095 31.4333 60.0095 31.52C60.0095 31.61 59.9778 31.6867 59.9145 31.75C59.8545 31.81 59.7778 31.84 59.6845 31.84ZM63.1355 32.35V35H62.6555V32.77H61.5155L61.4855 33.36C61.4688 33.7167 61.4372 34.015 61.3905 34.255C61.3438 34.4917 61.2672 34.6817 61.1605 34.825C61.0538 34.9683 60.9055 35.04 60.7155 35.04C60.6288 35.04 60.5305 35.025 60.4205 34.995L60.4505 34.59C60.4938 34.6 60.5338 34.605 60.5705 34.605C60.7038 34.605 60.8038 34.5467 60.8705 34.43C60.9372 34.3133 60.9805 34.175 61.0005 34.015C61.0205 33.855 61.0388 33.6267 61.0555 33.33L61.1005 32.35H63.1355ZM66.7586 34.58V35.615H66.3086V35H64.0936V35.615H63.6386V34.58H63.7786C63.9486 34.57 64.0653 34.45 64.1286 34.22C64.192 33.99 64.2353 33.665 64.2586 33.245L64.2986 32.35H66.3536V34.58H66.7586ZM64.6986 33.28C64.6853 33.6133 64.657 33.89 64.6136 34.11C64.5736 34.3267 64.4986 34.4833 64.3886 34.58H65.8736V32.77H64.7236L64.6986 33.28ZM69.7789 33.69C69.7789 33.7267 69.7756 33.775 69.7689 33.835H67.6189C67.6489 34.0683 67.7506 34.2567 67.9239 34.4C68.1006 34.54 68.3189 34.61 68.5789 34.61C68.8956 34.61 69.1506 34.5033 69.3439 34.29L69.6089 34.6C69.4889 34.74 69.3389 34.8467 69.1589 34.92C68.9823 34.9933 68.7839 35.03 68.5639 35.03C68.2839 35.03 68.0356 34.9733 67.8189 34.86C67.6023 34.7433 67.4339 34.5817 67.3139 34.375C67.1973 34.1683 67.1389 33.935 67.1389 33.675C67.1389 33.4183 67.1956 33.1867 67.3089 32.98C67.4256 32.7733 67.5839 32.6133 67.7839 32.5C67.9873 32.3833 68.2156 32.325 68.4689 32.325C68.7223 32.325 68.9473 32.3833 69.1439 32.5C69.3439 32.6133 69.4989 32.7733 69.6089 32.98C69.7223 33.1867 69.7789 33.4233 69.7789 33.69ZM68.4689 32.73C68.2389 32.73 68.0456 32.8 67.8889 32.94C67.7356 33.08 67.6456 33.2633 67.6189 33.49H69.3189C69.2923 33.2667 69.2006 33.085 69.0439 32.945C68.8906 32.8017 68.6989 32.73 68.4689 32.73ZM71.9286 32.325C72.1853 32.325 72.4153 32.3817 72.6186 32.495C72.8219 32.6083 72.9803 32.7667 73.0936 32.97C73.2103 33.1733 73.2686 33.4083 73.2686 33.675C73.2686 33.9417 73.2103 34.1783 73.0936 34.385C72.9803 34.5883 72.8219 34.7467 72.6186 34.86C72.4153 34.9733 72.1853 35.03 71.9286 35.03C71.7386 35.03 71.5636 34.9933 71.4036 34.92C71.2469 34.8467 71.1136 34.74 71.0036 34.6V35.97H70.5236V32.35H70.9836V32.77C71.0903 32.6233 71.2253 32.5133 71.3886 32.44C71.5519 32.3633 71.7319 32.325 71.9286 32.325ZM71.8886 34.61C72.0586 34.61 72.2103 34.5717 72.3436 34.495C72.4803 34.415 72.5869 34.305 72.6636 34.165C72.7436 34.0217 72.7836 33.8583 72.7836 33.675C72.7836 33.4917 72.7436 33.33 72.6636 33.19C72.5869 33.0467 72.4803 32.9367 72.3436 32.86C72.2103 32.7833 72.0586 32.745 71.8886 32.745C71.7219 32.745 71.5703 32.785 71.4336 32.865C71.3003 32.9417 71.1936 33.05 71.1136 33.19C71.0369 33.33 70.9986 33.4917 70.9986 33.675C70.9986 33.8583 71.0369 34.0217 71.1136 34.165C71.1903 34.305 71.2969 34.415 71.4336 34.495C71.5703 34.5717 71.7219 34.61 71.8886 34.61ZM73.966 32.35H74.446V35H73.966V32.35ZM74.206 31.84C74.1126 31.84 74.0343 31.81 73.971 31.75C73.911 31.69 73.881 31.6167 73.881 31.53C73.881 31.4433 73.911 31.37 73.971 31.31C74.0343 31.2467 74.1126 31.215 74.206 31.215C74.2993 31.215 74.376 31.245 74.436 31.305C74.4993 31.3617 74.531 31.4333 74.531 31.52C74.531 31.61 74.4993 31.6867 74.436 31.75C74.376 31.81 74.2993 31.84 74.206 31.84ZM75.382 32.35H75.862V33.475H77.372V32.35H77.852V35H77.372V33.89H75.862V35H75.382V32.35ZM81.3381 35.01V35.97H80.8531V35.01L79.6931 32.35H80.1981L81.1081 34.47L82.0381 32.35H82.5031L81.3381 35.01ZM82.9992 32.35H83.4792V34.28L85.1042 32.35H85.5392V35H85.0592V33.07L83.4392 35H82.9992V32.35ZM84.2392 32.005C83.9925 32.005 83.8008 31.9467 83.6642 31.83C83.5275 31.71 83.4575 31.5383 83.4542 31.315H83.7792C83.7825 31.4383 83.8242 31.5383 83.9042 31.615C83.9875 31.6883 84.0975 31.725 84.2342 31.725C84.3708 31.725 84.4808 31.6883 84.5642 31.615C84.6475 31.5383 84.6908 31.4383 84.6942 31.315H85.0292C85.0258 31.5383 84.9542 31.71 84.8142 31.83C84.6742 31.9467 84.4825 32.005 84.2392 32.005ZM87.8759 32.325C88.1325 32.325 88.3625 32.3817 88.5659 32.495C88.7692 32.6083 88.9275 32.7667 89.0409 32.97C89.1575 33.1733 89.2159 33.4083 89.2159 33.675C89.2159 33.9417 89.1575 34.1783 89.0409 34.385C88.9275 34.5883 88.7692 34.7467 88.5659 34.86C88.3625 34.9733 88.1325 35.03 87.8759 35.03C87.6859 35.03 87.5109 34.9933 87.3509 34.92C87.1942 34.8467 87.0609 34.74 86.9509 34.6V35.97H86.4709V32.35H86.9309V32.77C87.0375 32.6233 87.1725 32.5133 87.3359 32.44C87.4992 32.3633 87.6792 32.325 87.8759 32.325ZM87.8359 34.61C88.0059 34.61 88.1575 34.5717 88.2909 34.495C88.4275 34.415 88.5342 34.305 88.6109 34.165C88.6909 34.0217 88.7309 33.8583 88.7309 33.675C88.7309 33.4917 88.6909 33.33 88.6109 33.19C88.5342 33.0467 88.4275 32.9367 88.2909 32.86C88.1575 32.7833 88.0059 32.745 87.8359 32.745C87.6692 32.745 87.5175 32.785 87.3809 32.865C87.2475 32.9417 87.1409 33.05 87.0609 33.19C86.9842 33.33 86.9459 33.4917 86.9459 33.675C86.9459 33.8583 86.9842 34.0217 87.0609 34.165C87.1375 34.305 87.2442 34.415 87.3809 34.495C87.5175 34.5717 87.6692 34.61 87.8359 34.61ZM92.3082 33.69C92.3082 33.7267 92.3049 33.775 92.2982 33.835H90.1482C90.1782 34.0683 90.2799 34.2567 90.4532 34.4C90.6299 34.54 90.8482 34.61 91.1082 34.61C91.4249 34.61 91.6799 34.5033 91.8732 34.29L92.1382 34.6C92.0182 34.74 91.8682 34.8467 91.6882 34.92C91.5116 34.9933 91.3132 35.03 91.0932 35.03C90.8132 35.03 90.5649 34.9733 90.3482 34.86C90.1316 34.7433 89.9632 34.5817 89.8432 34.375C89.7266 34.1683 89.6682 33.935 89.6682 33.675C89.6682 33.4183 89.7249 33.1867 89.8382 32.98C89.9549 32.7733 90.1132 32.6133 90.3132 32.5C90.5166 32.3833 90.7449 32.325 90.9982 32.325C91.2516 32.325 91.4766 32.3833 91.6732 32.5C91.8732 32.6133 92.0282 32.7733 92.1382 32.98C92.2516 33.1867 92.3082 33.4233 92.3082 33.69ZM90.9982 32.73C90.7682 32.73 90.5749 32.8 90.4182 32.94C90.2649 33.08 90.1749 33.2633 90.1482 33.49H91.8482C91.8216 33.2667 91.7299 33.085 91.5732 32.945C91.4199 32.8017 91.2282 32.73 90.9982 32.73ZM93.0529 32.35H93.5329V33.475H95.0429V32.35H95.5229V35H95.0429V33.89H93.5329V35H93.0529V32.35ZM98.8212 32.35L97.5362 35.265C97.4229 35.535 97.2895 35.725 97.1362 35.835C96.9862 35.945 96.8045 36 96.5912 36C96.4612 36 96.3345 35.9783 96.2112 35.935C96.0912 35.895 95.9912 35.835 95.9112 35.755L96.1162 35.395C96.2529 35.525 96.4112 35.59 96.5912 35.59C96.7079 35.59 96.8045 35.5583 96.8812 35.495C96.9612 35.435 97.0329 35.33 97.0962 35.18L97.1812 34.995L96.0112 32.35H96.5112L97.4362 34.47L98.3512 32.35H98.8212ZM101.263 32.77H99.7927V35H99.3127V32.35H101.263V32.77ZM104.032 33.69C104.032 33.7267 104.029 33.775 104.022 33.835H101.872C101.902 34.0683 102.004 34.2567 102.177 34.4C102.354 34.54 102.572 34.61 102.832 34.61C103.149 34.61 103.404 34.5033 103.597 34.29L103.862 34.6C103.742 34.74 103.592 34.8467 103.412 34.92C103.235 34.9933 103.037 35.03 102.817 35.03C102.537 35.03 102.289 34.9733 102.072 34.86C101.855 34.7433 101.687 34.5817 101.567 34.375C101.45 34.1683 101.392 33.935 101.392 33.675C101.392 33.4183 101.449 33.1867 101.562 32.98C101.679 32.7733 101.837 32.6133 102.037 32.5C102.24 32.3833 102.469 32.325 102.722 32.325C102.975 32.325 103.2 32.3833 103.397 32.5C103.597 32.6133 103.752 32.7733 103.862 32.98C103.975 33.1867 104.032 33.4233 104.032 33.69ZM102.722 32.73C102.492 32.73 102.299 32.8 102.142 32.94C101.989 33.08 101.899 33.2633 101.872 33.49H103.572C103.545 33.2667 103.454 33.085 103.297 32.945C103.144 32.8017 102.952 32.73 102.722 32.73ZM21.4906 38.325C21.8572 38.325 22.1372 38.415 22.3306 38.595C22.5272 38.775 22.6256 39.0433 22.6256 39.4V41H22.1706V40.65C22.0906 40.7733 21.9756 40.8683 21.8256 40.935C21.6789 40.9983 21.5039 41.03 21.3006 41.03C21.0039 41.03 20.7656 40.9583 20.5856 40.815C20.4089 40.6717 20.3206 40.4833 20.3206 40.25C20.3206 40.0167 20.4056 39.83 20.5756 39.69C20.7456 39.5467 21.0156 39.475 21.3856 39.475H22.1456V39.38C22.1456 39.1733 22.0856 39.015 21.9656 38.905C21.8456 38.795 21.6689 38.74 21.4356 38.74C21.2789 38.74 21.1256 38.7667 20.9756 38.82C20.8256 38.87 20.6989 38.9383 20.5956 39.025L20.3956 38.665C20.5322 38.555 20.6956 38.4717 20.8856 38.415C21.0756 38.355 21.2772 38.325 21.4906 38.325ZM21.3806 40.66C21.5639 40.66 21.7222 40.62 21.8556 40.54C21.9889 40.4567 22.0856 40.34 22.1456 40.19V39.82H21.4056C20.9989 39.82 20.7956 39.9567 20.7956 40.23C20.7956 40.3633 20.8472 40.4683 20.9506 40.545C21.0539 40.6217 21.1972 40.66 21.3806 40.66ZM24.8949 38.325C25.1516 38.325 25.3816 38.3817 25.5849 38.495C25.7882 38.6083 25.9466 38.7667 26.0599 38.97C26.1766 39.1733 26.2349 39.4083 26.2349 39.675C26.2349 39.9417 26.1766 40.1783 26.0599 40.385C25.9466 40.5883 25.7882 40.7467 25.5849 40.86C25.3816 40.9733 25.1516 41.03 24.8949 41.03C24.7049 41.03 24.5299 40.9933 24.3699 40.92C24.2132 40.8467 24.0799 40.74 23.9699 40.6V41.97H23.4899V38.35H23.9499V38.77C24.0566 38.6233 24.1916 38.5133 24.3549 38.44C24.5182 38.3633 24.6982 38.325 24.8949 38.325ZM24.8549 40.61C25.0249 40.61 25.1766 40.5717 25.3099 40.495C25.4466 40.415 25.5532 40.305 25.6299 40.165C25.7099 40.0217 25.7499 39.8583 25.7499 39.675C25.7499 39.4917 25.7099 39.33 25.6299 39.19C25.5532 39.0467 25.4466 38.9367 25.3099 38.86C25.1766 38.7833 25.0249 38.745 24.8549 38.745C24.6882 38.745 24.5366 38.785 24.3999 38.865C24.2666 38.9417 24.1599 39.05 24.0799 39.19C24.0032 39.33 23.9649 39.4917 23.9649 39.675C23.9649 39.8583 24.0032 40.0217 24.0799 40.165C24.1566 40.305 24.2632 40.415 24.3999 40.495C24.5366 40.5717 24.6882 40.61 24.8549 40.61ZM26.9323 38.35H27.4123V39.475H28.9223V38.35H29.4023V41H28.9223V39.89H27.4123V41H26.9323V38.35ZM31.2806 38.325C31.6473 38.325 31.9273 38.415 32.1206 38.595C32.3173 38.775 32.4156 39.0433 32.4156 39.4V41H31.9606V40.65C31.8806 40.7733 31.7656 40.8683 31.6156 40.935C31.4689 40.9983 31.2939 41.03 31.0906 41.03C30.7939 41.03 30.5556 40.9583 30.3756 40.815C30.1989 40.6717 30.1106 40.4833 30.1106 40.25C30.1106 40.0167 30.1956 39.83 30.3656 39.69C30.5356 39.5467 30.8056 39.475 31.1756 39.475H31.9356V39.38C31.9356 39.1733 31.8756 39.015 31.7556 38.905C31.6356 38.795 31.4589 38.74 31.2256 38.74C31.0689 38.74 30.9156 38.7667 30.7656 38.82C30.6156 38.87 30.4889 38.9383 30.3856 39.025L30.1856 38.665C30.3223 38.555 30.4856 38.4717 30.6756 38.415C30.8656 38.355 31.0673 38.325 31.2806 38.325ZM31.1706 40.66C31.3539 40.66 31.5123 40.62 31.6456 40.54C31.7789 40.4567 31.8756 40.34 31.9356 40.19V39.82H31.1956C30.7889 39.82 30.5856 39.9567 30.5856 40.23C30.5856 40.3633 30.6373 40.4683 30.7406 40.545C30.8439 40.6217 30.9873 40.66 31.1706 40.66ZM35.5549 38.35V41H35.0749V38.77H33.9349L33.9049 39.36C33.8883 39.7167 33.8566 40.015 33.8099 40.255C33.7633 40.4917 33.6866 40.6817 33.5799 40.825C33.4733 40.9683 33.3249 41.04 33.1349 41.04C33.0483 41.04 32.9499 41.025 32.8399 40.995L32.8699 40.59C32.9133 40.6 32.9533 40.605 32.9899 40.605C33.1233 40.605 33.2233 40.5467 33.2899 40.43C33.3566 40.3133 33.3999 40.175 33.4199 40.015C33.4399 39.855 33.4583 39.6267 33.4749 39.33L33.5199 38.35H35.5549ZM37.0431 38.77V39.685H38.1731V40.025H37.0431V41H36.5631V40.025H36.2331V39.685H36.5631V38.35H38.5131V38.77H37.0431ZM40.0062 38.325C40.3729 38.325 40.6529 38.415 40.8462 38.595C41.0429 38.775 41.1412 39.0433 41.1412 39.4V41H40.6862V40.65C40.6062 40.7733 40.4912 40.8683 40.3412 40.935C40.1945 40.9983 40.0195 41.03 39.8162 41.03C39.5195 41.03 39.2812 40.9583 39.1012 40.815C38.9245 40.6717 38.8362 40.4833 38.8362 40.25C38.8362 40.0167 38.9212 39.83 39.0912 39.69C39.2612 39.5467 39.5312 39.475 39.9012 39.475H40.6612V39.38C40.6612 39.1733 40.6012 39.015 40.4812 38.905C40.3612 38.795 40.1845 38.74 39.9512 38.74C39.7945 38.74 39.6412 38.7667 39.4912 38.82C39.3412 38.87 39.2145 38.9383 39.1112 39.025L38.9112 38.665C39.0479 38.555 39.2112 38.4717 39.4012 38.415C39.5912 38.355 39.7929 38.325 40.0062 38.325ZM39.8962 40.66C40.0795 40.66 40.2379 40.62 40.3712 40.54C40.5045 40.4567 40.6012 40.34 40.6612 40.19V39.82H39.9212C39.5145 39.82 39.3112 39.9567 39.3112 40.23C39.3112 40.3633 39.3629 40.4683 39.4662 40.545C39.5695 40.6217 39.7129 40.66 39.8962 40.66ZM42.0055 38.35H42.4855V39.475H43.9955V38.35H44.4755V41H43.9955V39.89H42.4855V41H42.0055V38.35ZM47.5166 38.32C47.7866 38.32 48.03 38.3783 48.2466 38.495C48.4666 38.6117 48.6383 38.7733 48.7616 38.98C48.885 39.1867 48.9466 39.4183 48.9466 39.675C48.9466 39.935 48.885 40.1683 48.7616 40.375C48.6383 40.5817 48.4666 40.7433 48.2466 40.86C48.03 40.9767 47.7866 41.035 47.5166 41.035C47.2833 41.035 47.0716 40.9983 46.8816 40.925C46.695 40.8517 46.5366 40.745 46.4066 40.605L46.6866 40.325C46.9 40.535 47.17 40.64 47.4966 40.64C47.7566 40.64 47.9783 40.5667 48.1616 40.42C48.345 40.27 48.455 40.075 48.4916 39.835H47.1616V39.48H48.4816C48.4383 39.25 48.3266 39.065 48.1466 38.925C47.9666 38.7817 47.75 38.71 47.4966 38.71C47.1733 38.71 46.9033 38.8167 46.6866 39.03L46.4066 38.755C46.5366 38.6117 46.6966 38.5033 46.8866 38.43C47.0766 38.3567 47.2866 38.32 47.5166 38.32ZM51.8831 38.35V41H51.4031V38.77H50.2631L50.2331 39.36C50.2164 39.7167 50.1847 40.015 50.1381 40.255C50.0914 40.4917 50.0147 40.6817 49.9081 40.825C49.8014 40.9683 49.6531 41.04 49.4631 41.04C49.3764 41.04 49.2781 41.025 49.1681 40.995L49.1981 40.59C49.2414 40.6 49.2814 40.605 49.3181 40.605C49.4514 40.605 49.5514 40.5467 49.6181 40.43C49.6847 40.3133 49.7281 40.175 49.7481 40.015C49.7681 39.855 49.7864 39.6267 49.8031 39.33L49.8481 38.35H51.8831ZM55.2062 39.69C55.2062 39.7267 55.2029 39.775 55.1962 39.835H53.0462C53.0762 40.0683 53.1779 40.2567 53.3512 40.4C53.5279 40.54 53.7462 40.61 54.0062 40.61C54.3229 40.61 54.5779 40.5033 54.7712 40.29L55.0362 40.6C54.9162 40.74 54.7662 40.8467 54.5862 40.92C54.4095 40.9933 54.2112 41.03 53.9912 41.03C53.7112 41.03 53.4629 40.9733 53.2462 40.86C53.0295 40.7433 52.8612 40.5817 52.7412 40.375C52.6245 40.1683 52.5662 39.935 52.5662 39.675C52.5662 39.4183 52.6229 39.1867 52.7362 38.98C52.8529 38.7733 53.0112 38.6133 53.2112 38.5C53.4145 38.3833 53.6429 38.325 53.8962 38.325C54.1495 38.325 54.3745 38.3833 54.5712 38.5C54.7712 38.6133 54.9262 38.7733 55.0362 38.98C55.1495 39.1867 55.2062 39.4233 55.2062 39.69ZM53.8962 38.73C53.6662 38.73 53.4729 38.8 53.3162 38.94C53.1629 39.08 53.0729 39.2633 53.0462 39.49H54.7462C54.7195 39.2667 54.6279 39.085 54.4712 38.945C54.3179 38.8017 54.1262 38.73 53.8962 38.73ZM56.9808 39.88H56.4308V41H55.9508V38.35H56.4308V39.47H56.9908L57.8508 38.35H58.3658L57.3608 39.625L58.4358 41H57.8708L56.9808 39.88ZM60.8702 38.77H59.9002V41H59.4202V38.77H58.4502V38.35H60.8702V38.77ZM62.766 38.325C63.0227 38.325 63.2527 38.3817 63.456 38.495C63.6593 38.6083 63.8177 38.7667 63.931 38.97C64.0477 39.1733 64.106 39.4083 64.106 39.675C64.106 39.9417 64.0477 40.1783 63.931 40.385C63.8177 40.5883 63.6593 40.7467 63.456 40.86C63.2527 40.9733 63.0227 41.03 62.766 41.03C62.576 41.03 62.401 40.9933 62.241 40.92C62.0843 40.8467 61.951 40.74 61.841 40.6V41.97H61.361V38.35H61.821V38.77C61.9277 38.6233 62.0627 38.5133 62.226 38.44C62.3893 38.3633 62.5693 38.325 62.766 38.325ZM62.726 40.61C62.896 40.61 63.0477 40.5717 63.181 40.495C63.3177 40.415 63.4243 40.305 63.501 40.165C63.581 40.0217 63.621 39.8583 63.621 39.675C63.621 39.4917 63.581 39.33 63.501 39.19C63.4243 39.0467 63.3177 38.9367 63.181 38.86C63.0477 38.7833 62.896 38.745 62.726 38.745C62.5593 38.745 62.4077 38.785 62.271 38.865C62.1377 38.9417 62.031 39.05 61.951 39.19C61.8743 39.33 61.836 39.4917 61.836 39.675C61.836 39.8583 61.8743 40.0217 61.951 40.165C62.0277 40.305 62.1343 40.415 62.271 40.495C62.4077 40.5717 62.5593 40.61 62.726 40.61ZM65.9384 41.03C65.675 41.03 65.4384 40.9717 65.2284 40.855C65.0184 40.7383 64.8534 40.5783 64.7334 40.375C64.6167 40.1683 64.5584 39.935 64.5584 39.675C64.5584 39.415 64.6167 39.1833 64.7334 38.98C64.8534 38.7733 65.0184 38.6133 65.2284 38.5C65.4384 38.3833 65.675 38.325 65.9384 38.325C66.2017 38.325 66.4367 38.3833 66.6434 38.5C66.8534 38.6133 67.0167 38.7733 67.1334 38.98C67.2534 39.1833 67.3134 39.415 67.3134 39.675C67.3134 39.935 67.2534 40.1683 67.1334 40.375C67.0167 40.5783 66.8534 40.7383 66.6434 40.855C66.4367 40.9717 66.2017 41.03 65.9384 41.03ZM65.9384 40.61C66.1084 40.61 66.26 40.5717 66.3934 40.495C66.53 40.415 66.6367 40.305 66.7134 40.165C66.79 40.0217 66.8284 39.8583 66.8284 39.675C66.8284 39.4917 66.79 39.33 66.7134 39.19C66.6367 39.0467 66.53 38.9367 66.3934 38.86C66.26 38.7833 66.1084 38.745 65.9384 38.745C65.7684 38.745 65.615 38.7833 65.4784 38.86C65.345 38.9367 65.2384 39.0467 65.1584 39.19C65.0817 39.33 65.0434 39.4917 65.0434 39.675C65.0434 39.8583 65.0817 40.0217 65.1584 40.165C65.2384 40.305 65.345 40.415 65.4784 40.495C65.615 40.5717 65.7684 40.61 65.9384 40.61ZM68.0065 38.35H68.4865V39.475H69.9965V38.35H70.4765V41H69.9965V39.89H68.4865V41H68.0065V38.35ZM74.1048 40.58V41.615H73.6548V41H71.4398V41.615H70.9848V40.58H71.1248C71.2948 40.57 71.4115 40.45 71.4748 40.22C71.5382 39.99 71.5815 39.665 71.6048 39.245L71.6448 38.35H73.6998V40.58H74.1048ZM72.0448 39.28C72.0315 39.6133 72.0032 39.89 71.9598 40.11C71.9198 40.3267 71.8448 40.4833 71.7348 40.58H73.2198V38.77H72.0698L72.0448 39.28ZM75.9251 39.25C76.2585 39.2533 76.5135 39.33 76.6901 39.48C76.8668 39.63 76.9551 39.8417 76.9551 40.115C76.9551 40.4017 76.8585 40.6233 76.6651 40.78C76.4751 40.9333 76.2018 41.0083 75.8451 41.005L74.7301 41V38.35H75.2101V39.245L75.9251 39.25ZM77.3501 38.35H77.8301V41H77.3501V38.35ZM75.8101 40.64C76.0268 40.6433 76.1901 40.6 76.3001 40.51C76.4135 40.42 76.4701 40.2867 76.4701 40.11C76.4701 39.9367 76.4151 39.81 76.3051 39.73C76.1951 39.65 76.0301 39.6083 75.8101 39.605L75.2101 39.595V40.635L75.8101 40.64ZM79.7933 39.88H79.2433V41H78.7633V38.35H79.2433V39.47H79.8033L80.6633 38.35H81.1783L80.1733 39.625L81.2483 41H80.6833L79.7933 39.88ZM81.4533 40.59V41.565H81.0183V41H80.6833V40.59H81.4533ZM84.1244 39.88H83.5744V41H83.0944V38.35H83.5744V39.47H84.1344L84.9944 38.35H85.5094L84.5044 39.625L85.5794 41H85.0144L84.1244 39.88ZM88.3898 39.69C88.3898 39.7267 88.3865 39.775 88.3798 39.835H86.2298C86.2598 40.0683 86.3615 40.2567 86.5348 40.4C86.7115 40.54 86.9298 40.61 87.1898 40.61C87.5065 40.61 87.7615 40.5033 87.9548 40.29L88.2198 40.6C88.0998 40.74 87.9498 40.8467 87.7698 40.92C87.5931 40.9933 87.3948 41.03 87.1748 41.03C86.8948 41.03 86.6465 40.9733 86.4298 40.86C86.2131 40.7433 86.0448 40.5817 85.9248 40.375C85.8081 40.1683 85.7498 39.935 85.7498 39.675C85.7498 39.4183 85.8065 39.1867 85.9198 38.98C86.0365 38.7733 86.1948 38.6133 86.3948 38.5C86.5981 38.3833 86.8265 38.325 87.0798 38.325C87.3331 38.325 87.5581 38.3833 87.7548 38.5C87.9548 38.6133 88.1098 38.7733 88.2198 38.98C88.3331 39.1867 88.3898 39.4233 88.3898 39.69ZM87.0798 38.73C86.8498 38.73 86.6565 38.8 86.4998 38.94C86.3465 39.08 86.2565 39.2633 86.2298 39.49H87.9298C87.9031 39.2667 87.8115 39.085 87.6548 38.945C87.5015 38.8017 87.3098 38.73 87.0798 38.73ZM92.9094 38.35V41H89.1344V38.35H89.6144V40.58H90.7844V38.35H91.2644V40.58H92.4294V38.35H92.9094ZM96.2365 39.69C96.2365 39.7267 96.2331 39.775 96.2265 39.835H94.0765C94.1065 40.0683 94.2081 40.2567 94.3815 40.4C94.5581 40.54 94.7765 40.61 95.0365 40.61C95.3531 40.61 95.6081 40.5033 95.8015 40.29L96.0665 40.6C95.9465 40.74 95.7965 40.8467 95.6165 40.92C95.4398 40.9933 95.2415 41.03 95.0215 41.03C94.7415 41.03 94.4931 40.9733 94.2765 40.86C94.0598 40.7433 93.8915 40.5817 93.7715 40.375C93.6548 40.1683 93.5965 39.935 93.5965 39.675C93.5965 39.4183 93.6531 39.1867 93.7665 38.98C93.8831 38.7733 94.0415 38.6133 94.2415 38.5C94.4448 38.3833 94.6731 38.325 94.9265 38.325C95.1798 38.325 95.4048 38.3833 95.6015 38.5C95.8015 38.6133 95.9565 38.7733 96.0665 38.98C96.1798 39.1867 96.2365 39.4233 96.2365 39.69ZM94.9265 38.73C94.6965 38.73 94.5031 38.8 94.3465 38.94C94.1931 39.08 94.1031 39.2633 94.0765 39.49H95.7765C95.7498 39.2667 95.6581 39.085 95.5015 38.945C95.3481 38.8017 95.1565 38.73 94.9265 38.73ZM96.9811 38.35H97.4611V39.475H98.9711V38.35H99.4511V41H98.9711V39.89H97.4611V41H96.9811V38.35Z" fill="white"/>
</g>
<defs>
<clipPath id="clip0_473_4">
<rect width="118" height="43" fill="white"/>
</clipPath>
</defs>
</svg>
